<svg width="90" height="42" viewBox="0 0 90 42" fill="none" xmlns="http://www.w3.org/2000/svg">
<ellipse cx="79" cy="15.5" rx="11" ry="10.5" fill="#E8C719"/>
<path d="M8.512 31.196C7.20533 31.196 6.02933 30.972 4.984 30.524C3.93867 30.0573 3.11733 29.404 2.52 28.564C1.92267 27.724 1.624 26.744 1.624 25.624H5.04C5.11467 26.464 5.44133 27.1547 6.02 27.696C6.61733 28.2373 7.448 28.508 8.512 28.508C9.61333 28.508 10.472 28.2467 11.088 27.724C11.704 27.1827 12.012 26.492 12.012 25.652C12.012 24.9987 11.816 24.4667 11.424 24.056C11.0507 23.6453 10.5747 23.328 9.996 23.104C9.436 22.88 8.652 22.6373 7.644 22.376C6.37467 22.04 5.33867 21.704 4.536 21.368C3.752 21.0133 3.08 20.472 2.52 19.744C1.96 19.016 1.68 18.0453 1.68 16.832C1.68 15.712 1.96 14.732 2.52 13.892C3.08 13.052 3.864 12.408 4.872 11.96C5.88 11.512 7.04667 11.288 8.372 11.288C10.2573 11.288 11.7973 11.764 12.992 12.716C14.2053 13.6493 14.8773 14.9373 15.008 16.58H11.48C11.424 15.8707 11.088 15.264 10.472 14.76C9.856 14.256 9.044 14.004 8.036 14.004C7.12133 14.004 6.37467 14.2373 5.796 14.704C5.21733 15.1707 4.928 15.8427 4.928 16.72C4.928 17.3173 5.10533 17.812 5.46 18.204C5.83333 18.5773 6.3 18.876 6.86 19.1C7.42 19.324 8.18533 19.5667 9.156 19.828C10.444 20.1827 11.4893 20.5373 12.292 20.892C13.1133 21.2467 13.804 21.7973 14.364 22.544C14.9427 23.272 15.232 24.252 15.232 25.484C15.232 26.4733 14.9613 27.4067 14.42 28.284C13.8973 29.1613 13.1227 29.8707 12.096 30.412C11.088 30.9347 9.89333 31.196 8.512 31.196ZM20.6224 13.528C20.0438 13.528 19.5584 13.332 19.1664 12.94C18.7744 12.548 18.5784 12.0627 18.5784 11.484C18.5784 10.9053 18.7744 10.42 19.1664 10.028C19.5584 9.636 20.0438 9.44 20.6224 9.44C21.1824 9.44 21.6584 9.636 22.0504 10.028C22.4424 10.42 22.6384 10.9053 22.6384 11.484C22.6384 12.0627 22.4424 12.548 22.0504 12.94C21.6584 13.332 21.1824 13.528 20.6224 13.528ZM22.1904 15.572V31H18.9984V15.572H22.1904ZM34.1653 15.32C35.3786 15.32 36.4613 15.572 37.4133 16.076C38.3839 16.58 39.1399 17.3267 39.6813 18.316C40.2226 19.3053 40.4933 20.5 40.4933 21.9V31H37.3293V22.376C37.3293 20.9947 36.9839 19.94 36.2933 19.212C35.6026 18.4653 34.6599 18.092 33.4653 18.092C32.2706 18.092 31.3186 18.4653 30.6093 19.212C29.9186 19.94 29.5733 20.9947 29.5733 22.376V31H26.3813V15.572H29.5733V17.336C30.0959 16.7013 30.7586 16.2067 31.5613 15.852C32.3826 15.4973 33.2506 15.32 34.1653 15.32ZM43.5008 23.216C43.5008 21.6667 43.8182 20.2947 44.4528 19.1C45.1062 17.9053 45.9835 16.9813 47.0848 16.328C48.2048 15.656 49.4368 15.32 50.7808 15.32C51.9942 15.32 53.0488 15.5627 53.9448 16.048C54.8595 16.5147 55.5875 17.1027 56.1288 17.812V15.572H59.3488V31H56.1288V28.704C55.5875 29.432 54.8502 30.0387 53.9168 30.524C52.9835 31.0093 51.9195 31.252 50.7248 31.252C49.3995 31.252 48.1862 30.916 47.0848 30.244C45.9835 29.5533 45.1062 28.6013 44.4528 27.388C43.8182 26.156 43.5008 24.7653 43.5008 23.216ZM56.1288 23.272C56.1288 22.208 55.9048 21.284 55.4568 20.5C55.0275 19.716 54.4582 19.1187 53.7488 18.708C53.0395 18.2973 52.2742 18.092 51.4528 18.092C50.6315 18.092 49.8662 18.2973 49.1568 18.708C48.4475 19.1 47.8688 19.688 47.4208 20.472C46.9915 21.2373 46.7768 22.152 46.7768 23.216C46.7768 24.28 46.9915 25.2133 47.4208 26.016C47.8688 26.8187 48.4475 27.4347 49.1568 27.864C49.8848 28.2747 50.6502 28.48 51.4528 28.48C52.2742 28.48 53.0395 28.2747 53.7488 27.864C54.4582 27.4533 55.0275 26.856 55.4568 26.072C55.9048 25.2693 56.1288 24.336 56.1288 23.272ZM77.5134 15.572V31H74.3214V29.18C73.8174 29.8147 73.1547 30.3187 72.3334 30.692C71.5307 31.0467 70.6721 31.224 69.7574 31.224C68.5441 31.224 67.4521 30.972 66.4814 30.468C65.5294 29.964 64.7734 29.2173 64.2134 28.228C63.6721 27.2387 63.4014 26.044 63.4014 24.644V15.572H66.5654V24.168C66.5654 25.5493 66.9107 26.6133 67.6014 27.36C68.2921 28.088 69.2347 28.452 70.4294 28.452C71.6241 28.452 72.5667 28.088 73.2574 27.36C73.9667 26.6133 74.3214 25.5493 74.3214 24.168V15.572H77.5134Z" fill="white"/>
</svg>
